<svg id="WHITE" xmlns="http://www.w3.org/2000/svg" viewBox="0 0 235 132"><title>Artboard 1 copy</title><g id="black"><path d="M176.8,87.48a2.81,2.81,0,0,0-3.06,2.77,3.21,3.21,0,0,0,3,3.12,2.82,2.82,0,0,0,3.06-2.77,3.19,3.19,0,0,0-3-3.12"/><path d="M168.61,85.32c-.41,0-40.59-2.89-76.9-1a518.84,518.84,0,0,0-70.82,9.14c-1.53.33-2.55,3-1,3,2.58,0,28.74-4.55,69-6.42,36.16-1.68,75.71,3.48,80.18,3.24,2.23-.12,2.35-3.56,2.36-5.13a2.85,2.85,0,0,0-2.84-2.85"/><path d="M180,70.92a3.07,3.07,0,0,0-1.11-1.22c-2.75-1.65-4.36,2.8-6.85,4-3.1,1.54-7.88,1-8.66-2.81C171,72.42,177.94,64.18,176.07,57a7.91,7.91,0,0,0-7.27-5.83C165,51,162.16,54,160.44,56.94a23.56,23.56,0,0,0-3,10.94c-.07,1.9-.1,3.49-1.32,5.09-.79,1-2.32,1.78-3.49.68-1.51-1.44-.55-5.77-.45-7.49s.28-3.44.4-5.16c.22-3.38,0-7.64-3.46-9.59-4-2.25-8.34.74-10.54,3.8-1.05-2.74-2.91-4.55-6-4.53a9.12,9.12,0,0,0-4.29,1.13,16,16,0,0,0-1.83,1.38s-3.11-.2-3.69.58-.91,7-1,7.42c-.52,3.38-2.26,6.1-3.84,8.75-1.35,2.28-3.71,4.82-5.37,1.44-1.06-2.17-1-5-.89-7.36.12-3.13,1.85-13.61,1.85-13.6l6.24-.07s3.28-.05,3.78-2.35c.67-3.16-.85-3-.85-3l-8.38.06s.58-3.39,1.07-6.1c.22-1.23.47-1.94.27-2.32-.1-.19-.32-.3-.7-.34a6.81,6.81,0,0,0-.7,0l-1,.06c-2.72.2-3.43,3.11-3.83,5.36-.48,2.71-.67,3.8-.67,3.8l-5.66.13s-2.76,0-3.34,2.33c-.64,2.54,0,2.93.52,2.91,5.35-.18,7.73-.3,7.73-.29-.63,4.46-1.25,8.93-1.87,13.38a16.08,16.08,0,0,1-1.33,3.91c-1,1.81-4.59,8.31-6.83,4.68-1.27-2-.65-5.83-.31-8.2.23-1.62,1.85-5.67,1.66-6.25s-2.07-.88-2.07-.88a6.3,6.3,0,0,0-.18-1.55c-.39-1.33-2-2.45-3.18-3-8.48-4.32-13.34,6.6-15.08,12.87-1,3.44-2.42,7.25-5.86,8.94-3.15,1.54-7,2-8-1.58,5.87.22,10.87-5.07,12.23-10.44,1.32-5.21-1.6-11.08-7.7-10-5.76,1-9,8.36-10,13.38a24,24,0,0,0-.5,5.64,7.37,7.37,0,0,1-1.14,4.37c-.71,1.06-2.18,1.94-3.4,1.13-1.59-1-.85-5.21-.79-7s.19-3.48.27-5.28c.17-3.52,0-8.05-3.41-9.79-3.91-2-8.27,1.81-10.42,5.56-1-2.93-2.85-4.81-5.94-4.42a8.63,8.63,0,0,0-4.21,1.82c-.6.46-2.48,2.58-2.48,2.58h-.21c-1.11-1.34-2.9-3.26-7.19-.33-3.2,2.2-4,6.67-4.32,9.69,0,.42-.07.8-.07,1.15a3,3,0,0,0,.16.94,1.63,1.63,0,0,0,1.57,1,2.36,2.36,0,0,0,2.61-2c.21-1.2.66-4.77,2.48-5.41a1.21,1.21,0,0,1,1.54.86C23.44,70.29,22,81.54,22,82c-.16,1.56-.35,3.47,2.63,3,2.53-.34,2.5-1.41,2.61-2s1.61-12.19,2.07-14.42A10,10,0,0,1,33,62.65c2-1.38,3.75,1.67,3.69,3.37-.16,4.76-1.25,14-1.24,14.61-.08,1.43-.47,2.76,2,2.78a7.48,7.48,0,0,0,1.88-.19,2.15,2.15,0,0,0,.94-.47,1.51,1.51,0,0,0,.41-1c.1-.17.66-10.15,1.31-14.62.36-2.27,1.67-5.67,3.62-6.27,2.88-.86,3.25,1,3.28,2.67,0,2.08-.32,4.55-.42,6.51-.2,4-1.25,9.14,2.55,10.86a8.21,8.21,0,0,0,2.85.73,9.67,9.67,0,0,0,3-.24,8.89,8.89,0,0,0,5-3c.41.37,2.29,2.62,7,2.33A15.94,15.94,0,0,0,79.4,76.11a7.24,7.24,0,0,0,2.73,2.59,7,7,0,0,0,1.84.68,6.8,6.8,0,0,0,2,.1c3-.34,5.12-2.48,6.81-4.68,1.24,2.7,4,3.7,7.12,3.57,4.86-.2,7.2-5.21,7.2-5.21s.85,3.59,4,4.6c5.76,1.85,8.33-1.71,8.33-1.72s-.44,2.62,2.54,2.6c2.54,0,2.84-1.61,2.84-1.61s1.82-11.22,2.69-15.86a7.59,7.59,0,0,1,3.8-4.83c2.09-1,3.81,1.95,3.74,3.51-.16,4-1.63,14.15-1.69,14.7s-1.33,4.31,1.74,4.3c3.5,0,3.34-1.62,3.44-2.07.2-.7,1.17-11.37,1.83-15.15.4-2.11,1.74-5,3.73-5.32,2.92-.43,3.28,1.31,3.3,2.91,0,2-.39,4.28-.54,6.23-.31,3.91-1.67,9.45,1.93,12.28a7.42,7.42,0,0,0,2.76,1.36,8,8,0,0,0,3,.17,8.53,8.53,0,0,0,5.3-2.79,9,9,0,0,0,6,3.39,14,14,0,0,0,3.6,0,16,16,0,0,0,3.52-.83,17.15,17.15,0,0,0,5.6-3.91,5.76,5.76,0,0,0,1.61-2.86,2.07,2.07,0,0,0,0-.35c0-.12,0-.23,0-.35a2.06,2.06,0,0,0-.2-.67M169.89,57.17c1.77,1.25.29,4.31-.54,5.49-1.22,1.75-3.47,3.63-5.85,2.53.56-2.64,3-10.4,6.39-8M71.1,58.28c1.75,1,.26,4.3-.54,5.6-1.19,1.92-3.36,4.1-5.75,3.38.45-2.66,3-11,6.29-9M93,59.89c0,.16,0,.28,0,.37,0-.11,0-.24,0-.37-.09,3.83-2.28,8.35-4.42,11.49-.57.84-1.88,3.06-3.19,2.82s-1.47-2.63-1.49-3.61A20.76,20.76,0,0,1,86,61.69c.73-1.56,2.19-4.35,4.26-4.37A2.8,2.8,0,0,1,93,59.89s0,0,0-.06,0,0,0,.06"/><path d="M222.1,89.43a3.24,3.24,0,0,0-2.43-1.12.44.44,0,0,0-.42.19c-2.57,3.74-3.91,4.06-4.36,4-.12,0-.51,0-.86-.79-.74-1.55,0-4.31.45-6.13l.06-.27a22.48,22.48,0,0,1,1-2.48c.75-1.66,1-2.28.92-2.65-.12-.54-1-.93-1.56-1.12a5.31,5.31,0,0,0,0-1c-.28-1.5-2-2.71-2.5-3a6.33,6.33,0,0,0-5.58-1,10.87,10.87,0,0,0-5.26,4.31,28.71,28.71,0,0,0-3.23,6c-.9,2.21-2,4.68-4,6a7.65,7.65,0,0,1-3.11,1.05c-2.51.29-3.73-1-3.86-2.44-.18-1.84,1-5.31,2.26-7.41,1.83-3.18,2.64-3.52,2.64-3.52s.63,1.39.92,2c.87,2,1.82,2.15,3,1.77a2.52,2.52,0,0,0,1.67-3.18c-.33-1.59-1.15-3.67-2.32-4.51a4.38,4.38,0,0,0-3.49-.79c-2.49.47-4.84,2.9-6.21,5a25.4,25.4,0,0,0-3.06,6.72c-.82,3-.73,5.44.26,7.32,2.2,4.15,7.34,4.58,11.43,3.47a6.74,6.74,0,0,0,2.35-1.19,11.51,11.51,0,0,0,1.32-.82,6.36,6.36,0,0,0,3.44,2.82,5.89,5.89,0,0,0,1.76.28,8.4,8.4,0,0,0,5.8-2.84c.92,1.88,2.87,3,5.59,3.19l.44,0c3.92,0,6.19-3.64,6.29-3.81s2-2.85.72-4.08m-11.83-8.27h0c-.52,3.79-3.6,7.63-4.54,8.72l-.16.2c-.47.56-1.56,1.87-2.23,1.67s-.73-1-.58-2.61a16.57,16.57,0,0,1,2.47-6.86c.46-.74,1.82-3,3.3-3h.14a1.85,1.85,0,0,1,1.23.73,1.55,1.55,0,0,1,.37,1.11"/></g></svg>